<svg xmlns="http://www.w3.org/2000/svg" xmlns:xlink="http://www.w3.org/1999/xlink" viewBox="0 0 514.45 512.4"><defs><style>.cls-1{opacity:0.3;fill:url(#linear-gradient);}.cls-2{fill:url(#linear-gradient-2);}.cls-14,.cls-18,.cls-19,.cls-22,.cls-25,.cls-3,.cls-30,.cls-7{fill:#fff;}.cls-3{opacity:0.43;}.cls-4{fill:url(#linear-gradient-3);}.cls-5{fill:url(#linear-gradient-4);}.cls-6{fill:url(#linear-gradient-5);}.cls-7{opacity:0.21;}.cls-8{fill:url(#linear-gradient-6);}.cls-9{fill:url(#linear-gradient-7);}.cls-10{fill:url(#linear-gradient-8);}.cls-11{fill:url(#linear-gradient-9);}.cls-12{fill:url(#linear-gradient-10);}.cls-13{fill:url(#linear-gradient-11);}.cls-15{fill:url(#linear-gradient-12);}.cls-16{fill:url(#linear-gradient-13);}.cls-17{fill:url(#linear-gradient-14);}.cls-18{opacity:0.8;}.cls-19,.cls-20{opacity:0.6;}.cls-21{fill:url(#linear-gradient-15);}.cls-22{opacity:0.49;}.cls-23{opacity:0.75;}.cls-24{fill:url(#linear-gradient-16);}.cls-25{opacity:0.54;}.cls-26{fill:url(#linear-gradient-17);}.cls-27{fill:url(#linear-gradient-18);}.cls-28{fill:url(#linear-gradient-19);}.cls-29{fill:url(#linear-gradient-20);}.cls-30{opacity:0.78;}.cls-31{fill:url(#linear-gradient-21);}.cls-32{fill:url(#linear-gradient-22);}.cls-33{fill:url(#linear-gradient-23);}.cls-34{fill:url(#linear-gradient-24);}.cls-35{fill:url(#linear-gradient-25);}.cls-36{fill:url(#linear-gradient-26);}.cls-37{fill:url(#linear-gradient-27);}.cls-38{fill:url(#linear-gradient-28);}.cls-39{fill:url(#linear-gradient-29);}.cls-40{fill:url(#linear-gradient-30);}.cls-41{fill:url(#linear-gradient-31);}.cls-42{fill:url(#linear-gradient-32);}.cls-43{fill:url(#linear-gradient-33);}.cls-44{fill:url(#linear-gradient-34);}.cls-45{fill:url(#linear-gradient-35);}.cls-46{fill:url(#linear-gradient-36);}.cls-47{fill:url(#linear-gradient-37);}.cls-48{fill:url(#linear-gradient-38);}.cls-49{fill:url(#linear-gradient-39);}.cls-50{fill:url(#linear-gradient-40);}.cls-51{fill:url(#linear-gradient-41);}.cls-52{fill:url(#linear-gradient-42);}.cls-53{fill:url(#linear-gradient-43);}.cls-54{fill:url(#linear-gradient-44);}.cls-55{fill:url(#linear-gradient-45);}.cls-56{fill:url(#linear-gradient-46);}.cls-57{fill:url(#linear-gradient-47);}</style><linearGradient id="linear-gradient" x1="557.57" y1="586.56" x2="200.17" y2="206.11" gradientUnits="userSpaceOnUse"><stop offset="0" stop-color="#9a7fba"/><stop offset="1" stop-color="#e09ac4"/></linearGradient><linearGradient id="linear-gradient-2" x1="-8984.97" y1="-2168.97" x2="-9286.5" y2="-1787.95" gradientTransform="matrix(-0.89, -0.46, -0.46, 0.89, -8934.66, -2101.17)" xlink:href="#linear-gradient"/><linearGradient id="linear-gradient-3" x1="-9644.37" y1="-3696.94" x2="-9932.88" y2="-3332.37" gradientTransform="matrix(-0.78, -0.63, -0.63, 0.78, -9710.95, -3116.57)" gradientUnits="userSpaceOnUse"><stop offset="0" stop-color="#8d50a0"/><stop offset="1" stop-color="#ef4a7b"/></linearGradient><linearGradient id="linear-gradient-4" x1="136.37" y1="-75.85" x2="461.18" y2="711" gradientUnits="userSpaceOnUse"><stop offset="0" stop-color="#293882"/><stop offset="1" stop-color="#171042"/></linearGradient><linearGradient id="linear-gradient-5" x1="64.95" y1="61.65" x2="398.74" y2="371.13" gradientUnits="userSpaceOnUse"><stop offset="0" stop-color="#66cdf3"/><stop offset="1" stop-color="#4a5aa8"/></linearGradient><linearGradient id="linear-gradient-6" x1="283.98" y1="-172.44" x2="267.89" y2="148.13" xlink:href="#linear-gradient-5"/><linearGradient id="linear-gradient-7" x1="345.77" y1="110.86" x2="397.75" y2="-41.37" gradientUnits="userSpaceOnUse"><stop offset="0" stop-color="#f9ee4a"/><stop offset="1" stop-color="#da3d66"/></linearGradient><linearGradient id="linear-gradient-8" x1="363.76" y1="151.45" x2="263.51" y2="303.69" xlink:href="#linear-gradient"/><linearGradient id="linear-gradient-9" x1="334.71" y1="-50.21" x2="307.34" y2="8.09" xlink:href="#linear-gradient-7"/><linearGradient id="linear-gradient-10" x1="300.66" y1="129.49" x2="115" y2="333.72" gradientUnits="userSpaceOnUse"><stop offset="0" stop-color="#cb266e"/><stop offset="1" stop-color="#4c286e"/></linearGradient><linearGradient id="linear-gradient-11" x1="334.38" y1="133.25" x2="281.47" y2="323.54" gradientTransform="matrix(1, 0, 0, 1, 0, 0)" xlink:href="#linear-gradient-3"/><linearGradient id="linear-gradient-12" x1="387.02" y1="28.13" x2="349.99" y2="79.82" xlink:href="#linear-gradient-7"/><linearGradient id="linear-gradient-13" x1="392.39" y1="31.98" x2="355.35" y2="83.67" xlink:href="#linear-gradient-7"/><linearGradient id="linear-gradient-14" x1="230.84" y1="318.05" x2="163.19" y2="343.8" gradientUnits="userSpaceOnUse"><stop offset="0" stop-color="#f5928f"/><stop offset="1" stop-color="#f37064"/></linearGradient><linearGradient id="linear-gradient-15" x1="230.22" y1="413.36" x2="162.57" y2="439.1" xlink:href="#linear-gradient-14"/><linearGradient id="linear-gradient-16" x1="125.98" y1="253.19" x2="131.93" y2="176.86" xlink:href="#linear-gradient"/><linearGradient id="linear-gradient-17" x1="129.5" y1="130.8" x2="129.5" y2="289.24" xlink:href="#linear-gradient"/><linearGradient id="linear-gradient-18" x1="166.6" y1="172.04" x2="140.45" y2="284.64" gradientTransform="matrix(1, 0, 0, 1, 0, 0)" xlink:href="#linear-gradient-3"/><linearGradient id="linear-gradient-19" x1="60.08" y1="145.89" x2="83.89" y2="118.26" gradientTransform="translate(150.97 -10.89) rotate(63.01)" xlink:href="#linear-gradient-7"/><linearGradient id="linear-gradient-20" x1="97.34" y1="98.1" x2="26.94" y2="204.45" gradientTransform="translate(104.06 -25.77) rotate(43.45)" xlink:href="#linear-gradient-7"/><linearGradient id="linear-gradient-21" x1="95.24" y1="101.15" x2="57.76" y2="164.08" xlink:href="#linear-gradient-7"/><linearGradient id="linear-gradient-22" x1="92.61" y1="145.73" x2="134.05" y2="97.62" gradientTransform="translate(134.43 -69.29) rotate(54.22)" xlink:href="#linear-gradient-7"/><linearGradient id="linear-gradient-23" x1="157.47" y1="62.54" x2="34.92" y2="247.68" gradientTransform="translate(211.9 -50.34) rotate(82.03)" xlink:href="#linear-gradient-7"/><linearGradient id="linear-gradient-24" x1="153.82" y1="67.84" x2="88.56" y2="177.4" xlink:href="#linear-gradient-7"/><linearGradient id="linear-gradient-25" x1="112.69" y1="216.16" x2="155.34" y2="166.66" gradientTransform="translate(271.59 -30.63) rotate(73.76)" xlink:href="#linear-gradient-7"/><linearGradient id="linear-gradient-26" x1="179.44" y1="130.56" x2="53.33" y2="321.06" gradientTransform="matrix(0.76, 0.66, -0.66, 0.76, 146.74, -61.83)" xlink:href="#linear-gradient-7"/><linearGradient id="linear-gradient-27" x1="175.67" y1="136.02" x2="108.53" y2="248.75" xlink:href="#linear-gradient-7"/><linearGradient id="linear-gradient-28" x1="165.11" y1="159.35" x2="196.36" y2="123.09" xlink:href="#linear-gradient-7"/><linearGradient id="linear-gradient-29" x1="214.01" y1="96.64" x2="121.62" y2="236.22" gradientTransform="translate(215.64 -108.79) rotate(62.77)" xlink:href="#linear-gradient-7"/><linearGradient id="linear-gradient-30" x1="211.26" y1="100.63" x2="162.06" y2="183.23" xlink:href="#linear-gradient-7"/><linearGradient id="linear-gradient-31" x1="1617.86" y1="171.24" x2="1635.84" y2="222.62" gradientTransform="translate(-1278.53)" gradientUnits="userSpaceOnUse"><stop offset="0" stop-color="#f7b777"/><stop offset="1" stop-color="#f47960"/></linearGradient><linearGradient id="linear-gradient-32" x1="1631.68" y1="204.07" x2="1618.13" y2="176.74" xlink:href="#linear-gradient-31"/><linearGradient id="linear-gradient-33" x1="-5532.77" y1="483.18" x2="-5647.52" y2="608.01" gradientTransform="matrix(-1, 0, 0, 1, -5129.32, 0)" xlink:href="#linear-gradient-4"/><linearGradient id="linear-gradient-34" x1="-5570.02" y1="492.46" x2="-5559.82" y2="492.46" gradientTransform="matrix(-1, 0, 0, 1, -5129.32, 0)" xlink:href="#linear-gradient-31"/><linearGradient id="linear-gradient-35" x1="-5523.73" y1="342.02" x2="-5621.38" y2="474.37" gradientTransform="matrix(-1, 0, 0, 1, -5129.32, 0)" xlink:href="#linear-gradient-10"/><linearGradient id="linear-gradient-36" x1="-5558.51" y1="459.52" x2="-5673.27" y2="584.34" gradientTransform="matrix(-1, 0, 0, 1, -5129.32, 0)" xlink:href="#linear-gradient-4"/><linearGradient id="linear-gradient-37" x1="-5606.75" y1="491.93" x2="-5597.95" y2="491.93" gradientTransform="matrix(-1, 0, 0, 1, -5129.32, 0)" xlink:href="#linear-gradient-31"/><linearGradient id="linear-gradient-38" x1="-5541.14" y1="329.18" x2="-5638.78" y2="461.53" gradientTransform="matrix(-1, 0, 0, 1, -5129.32, 0)" xlink:href="#linear-gradient-10"/><linearGradient id="linear-gradient-39" x1="452.01" y1="244.86" x2="401.88" y2="419.41" xlink:href="#linear-gradient-7"/><linearGradient id="linear-gradient-40" x1="1633.23" y1="165.86" x2="1651.22" y2="217.24" xlink:href="#linear-gradient-31"/><linearGradient id="linear-gradient-41" x1="497.81" y1="258.02" x2="447.67" y2="432.56" xlink:href="#linear-gradient-7"/><linearGradient id="linear-gradient-42" x1="-5591.42" y1="229.84" x2="-5565.36" y2="229.84" gradientTransform="matrix(-1, 0, 0, 1, -5129.32, 0)" xlink:href="#linear-gradient-31"/><linearGradient id="linear-gradient-43" x1="-11526.58" y1="-4088.85" x2="-11536.31" y2="-4120.96" gradientTransform="matrix(-0.75, -0.67, -0.67, 0.75, -10891.75, -4412)" xlink:href="#linear-gradient-31"/><linearGradient id="linear-gradient-44" x1="-11535.36" y1="-4144.8" x2="-11527.22" y2="-4098.35" gradientTransform="matrix(-0.75, -0.67, -0.67, 0.75, -10891.75, -4412)" xlink:href="#linear-gradient-4"/><linearGradient id="linear-gradient-45" x1="-11536.53" y1="-4089" x2="-11545.29" y2="-4117.89" gradientTransform="matrix(-0.75, -0.67, -0.67, 0.75, -10891.75, -4412)" xlink:href="#linear-gradient-31"/><linearGradient id="linear-gradient-46" x1="-11711.92" y1="421.42" x2="-11733.1" y2="269.29" gradientTransform="matrix(-1, 0, 0, 1, -11228, 0)" xlink:href="#linear-gradient-31"/><linearGradient id="linear-gradient-47" x1="-11714.44" y1="406.78" x2="-11731.34" y2="285.38" gradientTransform="matrix(-1, 0, 0, 1, -11228, 0)" xlink:href="#linear-gradient-31"/></defs><title>expense-page-graphic</title><g id="Layer_2" data-name="Layer 2"><g id="Layer_1-2" data-name="Layer 1"><path class="cls-1" d="M452.68,431.77c-13.36,13.45-25.32,21.35-34.47,27.32-89.28,58.19-191.34,41.42-222.89,35.69-50.91-9.25-93.88-15.78-130.8-48.34-83.9-74-79.82-228.34-15.71-324,7.6-11.34,71.61-104,173.89-117,2.5-.32,4.37-.5,6-.67C244.52,3.16,342.57-5.47,422.52,59.92a234.94,234.94,0,0,1,46.94,52C531.9,206.05,532.1,351.86,452.68,431.77Z"/><path class="cls-2" d="M19,68.59a3.16,3.16,0,0,1,6.12-.06C33,99.22,56.13,179,93.55,222c60.92,69.9,100,182,58.65,238.72C152.2,460.68-64.1,415.78,19,68.59Z"/><path class="cls-3" d="M24,112.24c.06,1,.18,1.81.28,2.7l.33,2.61.74,5.21c.51,3.46,1.07,6.92,1.64,10.38q1.72,10.37,3.7,20.68c2.63,13.77,5.63,27.45,8.84,41.09s6.76,27.21,10.62,40.68,7.93,26.9,12.44,40.18a672.6,672.6,0,0,0,31.55,78c6.24,12.57,12.8,25,20.08,37a363.66,363.66,0,0,0,23.9,34.61.56.56,0,0,0,.78.09.56.56,0,0,0,.11-.76h0a407.65,407.65,0,0,1-22.82-35.1c-7-12.06-13.37-24.51-19.36-37.11S85.38,327,80.19,314s-9.83-26.14-14.4-39.34c-9-26.44-16.65-53.35-23.52-80.44q-5.12-20.34-9.43-40.86-2.19-10.26-4.16-20.56l-1.89-10.31-.88-5.17-.42-2.58c-.12-.85-.27-1.76-.34-2.51l0-.12a.54.54,0,0,0-.6-.49A.56.56,0,0,0,24,112.24Z"/><path class="cls-4" d="M108.43,1.75a3,3,0,0,1,5.75,1.1c1.57,30.27,8.19,109.5,35.17,156.84,43.93,77.07,59.36,189.62,9.89,235C159.24,394.67-35.15,311.67,108.43,1.75Z"/><path class="cls-3" d="M104.89,43.63c-.14.95-.17,1.74-.25,2.59l-.18,2.51-.3,5c-.18,3.35-.3,6.7-.42,10q-.34,10-.45,20.1c-.14,13.41.09,26.81.52,40.22s1.2,26.79,2.27,40.16,2.36,26.72,4.07,40A643.88,643.88,0,0,0,125,283.4c3.47,13,7.29,25.86,11.84,38.49a350,350,0,0,0,15.89,37,.54.54,0,0,0,1-.47h0A388.89,388.89,0,0,1,139,321.16c-4.33-12.64-7.91-25.52-11.15-38.47s-6-26-8.37-39.18-4.27-26.37-6.07-39.61c-3.47-26.51-5.53-53.18-6.86-79.89q-.95-20-1.12-40.11-.12-10,0-20.06l.18-10,.14-5,.1-2.51c0-.82.08-1.7.15-2.41v-.12a.53.53,0,0,0-1.06-.13Z"/><rect class="cls-5" x="126.46" y="1.66" width="292.12" height="504.61" rx="29.25"/><rect class="cls-6" x="139.81" y="17.34" width="265.39" height="473.5" rx="29.25"/><rect class="cls-7" x="142.6" y="30.44" width="259.48" height="449.86" rx="29.25"/><path class="cls-8" d="M405.21,75.42,405,36.21a18.67,18.67,0,0,0-18.77-18.66H158.64a18.67,18.67,0,0,0-18.77,18.66l-.06,38.3Z"/><path class="cls-9" d="M373.5,198.89l.09-1c4-49-33-92-82.56-96l-7.23,89.72Z"/><path class="cls-10" d="M283.65,191.25l71.7,54.44a89.65,89.65,0,0,0,17.92-46c.05-.55.09-1.09.14-1.64Z"/><path class="cls-11" d="M275.57,181.27,285.79,93a90.06,90.06,0,0,0-93.87,55.82l83,32.88A.47.47,0,0,0,275.57,181.27Z"/><path class="cls-12" d="M284,191.32l-84.35-31a80,80,0,0,0-5.05,22A90.06,90.06,0,0,0,244.1,272Z"/><path class="cls-13" d="M284,191.8v-.07l0,.06-.17-.13-.07.61L243.3,272a90,90,0,0,0,29.35,9v0l1.57.18a90,90,0,0,0,81.26-35Z"/><path class="cls-14" d="M228.2,259a1.24,1.24,0,0,1-.81-.29A88.12,88.12,0,0,1,197.1,185c.1-1.24.23-2.51.38-3.76a1.24,1.24,0,1,1,2.46.3c-.15,1.22-.28,2.45-.38,3.66A85.64,85.64,0,0,0,229,256.79a1.23,1.23,0,0,1-.81,2.17Z"/><path class="cls-14" d="M289.78,279.69a1.24,1.24,0,0,1-.07-2.47,85.47,85.47,0,0,0,61-31.31,1.25,1.25,0,0,1,1.75-.18,1.24,1.24,0,0,1,.17,1.74,87.93,87.93,0,0,1-62.78,32.22Z"/><path class="cls-14" d="M366.5,165.49a1.24,1.24,0,0,1-1.17-.84,85.05,85.05,0,0,0-30.63-41.56,1.24,1.24,0,0,1-.27-1.73,1.22,1.22,0,0,1,1.73-.27,87.58,87.58,0,0,1,31.52,42.76,1.24,1.24,0,0,1-.78,1.57A1.09,1.09,0,0,1,366.5,165.49Z"/><path class="cls-14" d="M238.7,164.38a1.22,1.22,0,0,1-.46-.09L195.09,146.9l.61-1.21a124.23,124.23,0,0,1,13.39-20.59,1.25,1.25,0,0,1,1.74-.2,1.23,1.23,0,0,1,.2,1.74,122.08,122.08,0,0,0-12.5,19L239.16,162a1.24,1.24,0,0,1-.46,2.39Z"/><path class="cls-14" d="M272.15,177.83a1.53,1.53,0,0,1-.6-.12l-8.67-3.49a1.24,1.24,0,1,1,.93-2.3L271.4,175l4.93-45.34a1.25,1.25,0,0,1,1.37-1.1,1.24,1.24,0,0,1,1.09,1.37l-5.05,46.48a1.58,1.58,0,0,1-.77,1.2A1.61,1.61,0,0,1,272.15,177.83Z"/><circle class="cls-14" cx="383.93" cy="38.2" r="15.67"/><path class="cls-15" d="M388.73,32.28c0,2.65-2.15,5.52-4.81,5.52s-4.8-2.87-4.8-5.52a4.81,4.81,0,0,1,9.61,0Z"/><path class="cls-16" d="M378,48h11.73a2.84,2.84,0,0,0,2.71-2l.63-2a2.84,2.84,0,0,0-1.72-3.53,21.83,21.83,0,0,0-14.76.16,2.83,2.83,0,0,0-1.82,3.43l.49,1.79A2.84,2.84,0,0,0,378,48Z"/><path class="cls-14" d="M293.48,375.63H159.63A9.68,9.68,0,0,1,150,366V304.57a9.67,9.67,0,0,1,9.66-9.66H293.48a9.67,9.67,0,0,1,9.66,9.66V366A9.68,9.68,0,0,1,293.48,375.63ZM159.63,296.77a7.81,7.81,0,0,0-7.81,7.8V366a7.81,7.81,0,0,0,7.81,7.81H293.48a7.82,7.82,0,0,0,7.81-7.81V304.57a7.82,7.82,0,0,0-7.81-7.8Z"/><rect class="cls-17" x="158.28" y="330.08" width="26.61" height="21.04" rx="2.98"/><path class="cls-18" d="M172.23,343.7h-5.62a1.53,1.53,0,0,1-1.52-1.53v-4.38a1.52,1.52,0,0,1,1.52-1.52h5.62a1.52,1.52,0,0,1,1.52,1.52v4.38A1.53,1.53,0,0,1,172.23,343.7Zm-5.62-6.19a.28.28,0,0,0-.29.28v4.38a.29.29,0,0,0,.29.29h5.62a.28.28,0,0,0,.28-.29v-4.38a.27.27,0,0,0-.28-.28Z"/><path class="cls-14" d="M165.71,339.36h-7.43a.62.62,0,1,1,0-1.23h7.43a.62.62,0,0,1,0,1.23Z"/><path class="cls-14" d="M165.71,341.84h-7.43a.62.62,0,1,1,0-1.24h7.43a.62.62,0,0,1,0,1.24Z"/><path class="cls-14" d="M183.65,339.36h-9.28a.62.62,0,1,1,0-1.23h9.28a.62.62,0,1,1,0,1.23Z"/><path class="cls-14" d="M183.65,341.84h-9.28a.62.62,0,1,1,0-1.24h9.28a.62.62,0,1,1,0,1.24Z"/><path class="cls-14" d="M167.9,337.91a.62.62,0,0,1-.6-.47l-1.75-7.4a.61.61,0,0,1,.46-.74.62.62,0,0,1,.74.46l1.75,7.39a.61.61,0,0,1-.46.75Z"/><path class="cls-14" d="M172.64,337.91h-.15a.63.63,0,0,1-.46-.75l1.82-7.4a.62.62,0,1,1,1.2.3l-1.81,7.39A.62.62,0,0,1,172.64,337.91Z"/><path class="cls-14" d="M166.15,351.73l-.14,0a.61.61,0,0,1-.46-.74l1.75-7.4a.62.62,0,1,1,1.2.29l-1.75,7.39A.62.62,0,0,1,166.15,351.73Z"/><path class="cls-14" d="M174.45,351.73a.62.62,0,0,1-.6-.47l-1.82-7.4a.62.62,0,0,1,1.21-.29l1.81,7.39a.62.62,0,0,1-.45.75Z"/><rect class="cls-19" x="155.18" y="307.18" width="29.71" height="7.43" rx="3.53"/><g class="cls-20"><rect class="cls-14" x="155.18" y="359.79" width="30.94" height="6.19" rx="3.06"/><rect class="cls-14" x="189.84" y="359.79" width="30.94" height="6.19" rx="3.06"/><rect class="cls-14" x="225.74" y="359.79" width="30.94" height="6.19" rx="3.06"/><rect class="cls-14" x="262.25" y="359.79" width="30.94" height="6.19" rx="3.06"/></g><path class="cls-14" d="M292.81,471H159a9.67,9.67,0,0,1-9.66-9.66V400a9.68,9.68,0,0,1,9.66-9.67H292.81a9.68,9.68,0,0,1,9.66,9.67v61.39A9.67,9.67,0,0,1,292.81,471ZM159,392.14a7.82,7.82,0,0,0-7.81,7.81v61.39a7.82,7.82,0,0,0,7.81,7.8H292.81a7.81,7.81,0,0,0,7.81-7.8V400a7.81,7.81,0,0,0-7.81-7.81Z"/><rect class="cls-21" x="157.66" y="425.39" width="26.61" height="21.04" rx="2.98"/><path class="cls-18" d="M171.61,439.62H166a1.52,1.52,0,0,1-1.52-1.52v-4.38A1.52,1.52,0,0,1,166,432.2h5.62a1.52,1.52,0,0,1,1.52,1.52v4.38A1.52,1.52,0,0,1,171.61,439.62ZM166,433.43a.28.28,0,0,0-.28.29v4.38a.27.27,0,0,0,.28.28h5.62a.27.27,0,0,0,.28-.28v-4.38a.28.28,0,0,0-.28-.29Z"/><path class="cls-14" d="M165.09,434.67h-7.43a.62.62,0,0,1,0-1.24h7.43a.62.62,0,0,1,0,1.24Z"/><path class="cls-14" d="M165.09,436.53h-7.43a.62.62,0,1,1,0-1.24h7.43a.62.62,0,0,1,0,1.24Z"/><path class="cls-14" d="M183,434.67h-9.28a.62.62,0,1,1,0-1.24H183a.62.62,0,1,1,0,1.24Z"/><path class="cls-14" d="M183,436.53h-9.28a.62.62,0,1,1,0-1.24H183a.62.62,0,1,1,0,1.24Z"/><path class="cls-14" d="M167.23,433.29a.63.63,0,0,1-.6-.48l-1.75-7.39a.62.62,0,0,1,1.21-.29l1.75,7.39a.62.62,0,0,1-.46.75Z"/><path class="cls-14" d="M172,433.29l-.15,0a.62.62,0,0,1-.45-.75l1.81-7.39a.62.62,0,1,1,1.21.29l-1.82,7.4A.62.62,0,0,1,172,433.29Z"/><path class="cls-14" d="M165.48,447.1a.36.36,0,0,1-.14,0,.61.61,0,0,1-.46-.74l1.75-7.39a.62.62,0,0,1,1.21.28l-1.75,7.39A.63.63,0,0,1,165.48,447.1Z"/><path class="cls-14" d="M173.78,447.1a.63.63,0,0,1-.6-.47l-1.81-7.39a.62.62,0,1,1,1.2-.3l1.82,7.39a.62.62,0,0,1-.46.75A.39.39,0,0,1,173.78,447.1Z"/><rect class="cls-19" x="153.95" y="402.49" width="29.71" height="7.43" rx="3.53"/><g class="cls-20"><rect class="cls-14" x="153.95" y="455.09" width="30.94" height="6.19" rx="3.06"/><rect class="cls-14" x="189.22" y="455.09" width="30.94" height="6.19" rx="3.06"/><rect class="cls-14" x="225.12" y="455.09" width="30.94" height="6.19" rx="3.06"/><rect class="cls-14" x="260.39" y="455.09" width="30.94" height="6.19" rx="3.06"/></g><rect class="cls-22" x="314.63" y="311.53" width="78.65" height="26.89" rx="5.64"/><rect class="cls-22" x="314.63" y="347.11" width="78.65" height="10.77" rx="5.13"/><path class="cls-14" d="M381.41,311.91h0a.92.92,0,0,1,.82.91v1.57a21.69,21.69,0,0,1,2.73.48,20.52,20.52,0,0,1,2,.56.92.92,0,0,1,.63.94l-.2,2a.73.73,0,0,1-1.05.61,11.43,11.43,0,0,0-1.34-.5,12.18,12.18,0,0,0-2.53-.47l-.24,0v4.5a11.78,11.78,0,0,1,5.23,2.67,5.67,5.67,0,0,1,1.68,4.18,5.52,5.52,0,0,1-1.85,4.34,8.49,8.49,0,0,1-5.24,1.84v1.74a.79.79,0,0,1-.83.8h0a.87.87,0,0,1-.82-.87v-1.71l-.37,0a26.23,26.23,0,0,1-3-.32,20.49,20.49,0,0,1-2.09-.49.89.89,0,0,1-.66-.93l.23-2.54a.8.8,0,0,1,1.12-.66,17.23,17.23,0,0,0,1.84.61,16.37,16.37,0,0,0,2.95.49l0-5a10.69,10.69,0,0,1-5.09-2.5,5.69,5.69,0,0,1-1.69-4.25,5,5,0,0,1,1.83-4.13,8.05,8.05,0,0,1,5.15-1.43v-1.61A.75.75,0,0,1,381.41,311.91Zm-.82,6a2.73,2.73,0,0,0-1.64.58,1.69,1.69,0,0,0-.59,1.35,1.79,1.79,0,0,0,.54,1.34,3.87,3.87,0,0,0,1.69.86Zm1.46,9.07v4.6a2.52,2.52,0,0,0,1.75-.55,2,2,0,0,0,.61-1.55,2.11,2.11,0,0,0-.56-1.51A4.21,4.21,0,0,0,382.05,327Z"/><rect class="cls-22" x="313.24" y="405.18" width="78.65" height="26.89" rx="5.64"/><rect class="cls-22" x="313.24" y="440.76" width="78.65" height="10.77" rx="5.13"/><path class="cls-14" d="M380,405.56h0a.92.92,0,0,1,.82.91V408a23.66,23.66,0,0,1,2.73.48,20.52,20.52,0,0,1,2,.56.91.91,0,0,1,.62.94l-.19,2a.73.73,0,0,1-1.05.61,11.43,11.43,0,0,0-1.34-.5,12.18,12.18,0,0,0-2.53-.47l-.24,0v4.5a11.78,11.78,0,0,1,5.23,2.67,5.67,5.67,0,0,1,1.68,4.18,5.5,5.5,0,0,1-1.86,4.34,8.43,8.43,0,0,1-5.23,1.84v1.74a.79.79,0,0,1-.83.8h0a.88.88,0,0,1-.83-.87v-1.71l-.36,0a26.23,26.23,0,0,1-3-.32,20.49,20.49,0,0,1-2.09-.49.89.89,0,0,1-.66-.93l.22-2.54a.81.81,0,0,1,1.13-.66,17.23,17.23,0,0,0,1.84.61,16.37,16.37,0,0,0,3,.49v-5a10.79,10.79,0,0,1-5.09-2.5,5.7,5.7,0,0,1-1.68-4.25,4.94,4.94,0,0,1,1.83-4.12,8,8,0,0,1,5.15-1.44v-1.61A.75.75,0,0,1,380,405.56Zm-.82,6a2.8,2.8,0,0,0-1.64.58,1.71,1.71,0,0,0-.59,1.35,1.83,1.83,0,0,0,.54,1.35,4.1,4.1,0,0,0,1.69.86Zm1.46,9.07v4.6a2.52,2.52,0,0,0,1.75-.55,2,2,0,0,0,.61-1.55,2.15,2.15,0,0,0-.56-1.51A4.21,4.21,0,0,0,380.66,420.64Z"/><g class="cls-23"><rect class="cls-14" x="376.14" y="58.54" width="15.58" height="3.38" rx="1.69"/><rect class="cls-14" x="376.14" y="63.89" width="15.58" height="3.38" rx="1.69"/><rect class="cls-14" x="376.14" y="68.96" width="15.58" height="3.38" rx="1.69"/></g><rect class="cls-22" x="299.12" y="56.27" width="66.16" height="11.91" rx="4.75"/><rect class="cls-22" x="221.09" y="55.71" width="66.16" height="11.91" rx="4.75"/><rect class="cls-22" x="142.88" y="55.16" width="66.16" height="11.91" rx="4.75"/><rect class="cls-24" x="73.62" y="179.81" width="110.67" height="70.43" rx="15.09"/><rect class="cls-25" x="77.48" y="181.98" width="103.62" height="65.94" rx="15.09"/><path class="cls-26" d="M184.89,195.17V188.1c0-4.62-3.86-7.79-8.3-7.79H82a7.58,7.58,0,0,0-7.87,7.79v7.07Z"/><path class="cls-14" d="M144.87,200.84a1.54,1.54,0,0,0-1.5-1.59l-9.29-.24c-.89,0-2,.65-2,1.51v8.71c0,.86,1.15,1.58,2,1.6l9,.17a1.64,1.64,0,0,0,1.71-1.52Z"/><path class="cls-14" d="M161.11,201.25a1.61,1.61,0,0,0-1.58-1.57l-8.7-.23A1.48,1.48,0,0,0,149.3,201v8.62a1.54,1.54,0,0,0,1.52,1.57l8.74.17a1.51,1.51,0,0,0,1.55-1.51Z"/><path class="cls-14" d="M177.35,201.67a1.63,1.63,0,0,0-1.6-1.56l-8.61-.23a1.53,1.53,0,0,0-1.6,1.48v8.54a1.59,1.59,0,0,0,1.56,1.56l8.64.17a1.55,1.55,0,0,0,1.61-1.48Z"/><path class="cls-14" d="M144.87,216.65a1.53,1.53,0,0,0-1.5-1.58l-9.29-.15c-.89,0-2,.66-2,1.53v8.7c0,.86,1.15,1.58,2,1.59l9,.09a1.67,1.67,0,0,0,1.71-1.54Z"/><path class="cls-27" d="M161.11,216.91a1.59,1.59,0,0,0-1.58-1.56l-8.7-.14a1.48,1.48,0,0,0-1.53,1.52v8.62a1.53,1.53,0,0,0,1.52,1.56l8.74.08a1.52,1.52,0,0,0,1.55-1.52Z"/><path class="cls-14" d="M177.35,217.17a1.61,1.61,0,0,0-1.6-1.54l-8.61-.15a1.54,1.54,0,0,0-1.6,1.49v8.54a1.57,1.57,0,0,0,1.56,1.55l8.64.09a1.57,1.57,0,0,0,1.61-1.5Z"/><path class="cls-14" d="M94.2,215.85a1.75,1.75,0,0,0-1.76-1.64l-9.39-.16a1.55,1.55,0,0,0-1.64,1.57v9a1.59,1.59,0,0,0,1.6,1.63l9.49.1a1.63,1.63,0,0,0,1.7-1.58Z"/><path class="cls-14" d="M111.42,216.11a1.6,1.6,0,0,0-1.58-1.61l-9.41-.16a1.73,1.73,0,0,0-1.8,1.57v8.88a1.81,1.81,0,0,0,1.84,1.61l9.28.1a1.62,1.62,0,0,0,1.67-1.57Z"/><path class="cls-14" d="M128.15,216.4a1.59,1.59,0,0,0-1.58-1.6l-9.33-.17a1.81,1.81,0,0,0-1.89,1.55V225a1.89,1.89,0,0,0,1.91,1.6l9.18.1a1.65,1.65,0,0,0,1.71-1.54Z"/><path class="cls-14" d="M144.87,232.46a1.5,1.5,0,0,0-1.5-1.56l-9.29-.07c-.89,0-2,.68-2,1.54v8.71c0,.86,1.15,1.56,2,1.57h9a1.68,1.68,0,0,0,1.71-1.55Z"/><path class="cls-14" d="M161.11,232.57a1.58,1.58,0,0,0-1.58-1.55l-8.7-.06a1.51,1.51,0,0,0-1.53,1.54v8.62a1.51,1.51,0,0,0,1.52,1.54h8.74a1.54,1.54,0,0,0,1.55-1.53Z"/><path class="cls-14" d="M94.2,232.14a1.72,1.72,0,0,0-1.76-1.61l-9.39-.08A1.58,1.58,0,0,0,81.41,232v9a1.57,1.57,0,0,0,1.6,1.61H92.5a1.65,1.65,0,0,0,1.7-1.59Z"/><path class="cls-14" d="M111.42,232.24a1.57,1.57,0,0,0-1.58-1.59l-9.41-.07a1.74,1.74,0,0,0-1.8,1.58V241a1.79,1.79,0,0,0,1.84,1.6h9.28a1.63,1.63,0,0,0,1.67-1.58Z"/><path class="cls-14" d="M128.15,232.37a1.58,1.58,0,0,0-1.58-1.59l-9.33-.07a1.82,1.82,0,0,0-1.89,1.55v8.8a1.87,1.87,0,0,0,1.91,1.58h9.18a1.67,1.67,0,0,0,1.71-1.55Z"/><circle class="cls-28" cx="84.37" cy="117.7" r="17.75" transform="translate(-58.8 139.47) rotate(-63.01)"/><circle class="cls-29" cx="84.37" cy="117.7" r="17.16" transform="translate(-57.82 90.27) rotate(-43.45)"/><path class="cls-14" d="M70.22,111.24a.66.66,0,0,1-.3-.07.67.67,0,0,1-.29-.9,16.51,16.51,0,0,1,17.72-8.81.66.66,0,0,1,.53.78.65.65,0,0,1-.77.53,15.68,15.68,0,0,0-2.74-.24,15.11,15.11,0,0,0-13.55,8.34A.69.69,0,0,1,70.22,111.24Z"/><circle class="cls-30" cx="84.74" cy="118.07" r="14.52" transform="translate(-34.35 34.77) rotate(-19.36)"/><path class="cls-31" d="M83.32,128.87v-1.58a12.94,12.94,0,0,1-4.44-1,.92.92,0,0,1-.5-1.08l.4-1.47a.93.93,0,0,1,1.25-.61,10.56,10.56,0,0,0,4.09.87c1.59,0,2.77-.54,2.77-1.64s-.91-1.59-3.11-2.18c-3.15-.86-5.41-2.23-5.41-5,0-2.5,1.83-4.41,5-4.92v-1.58a.92.92,0,0,1,.92-.92h.93a.92.92,0,0,1,.92.92v1.41a12.05,12.05,0,0,1,3.52.64.91.91,0,0,1,.57,1.1l-.37,1.36a.91.91,0,0,1-1.21.62,9.77,9.77,0,0,0-3.45-.62c-1.88,0-2.42.78-2.42,1.48,0,.86,1.13,1.45,3.58,2.2,3.49,1,4.94,2.5,4.94,5.11,0,2.39-1.77,4.54-5.21,5.08v1.77a.92.92,0,0,1-.92.92h-.93A.92.92,0,0,1,83.32,128.87Z"/><circle class="cls-32" cx="134.89" cy="96.65" r="30.9" transform="translate(-22.39 149.57) rotate(-54.22)"/><circle class="cls-33" cx="134.89" cy="96.65" r="29.87" transform="translate(20.46 216.83) rotate(-82.03)"/><path class="cls-14" d="M110.26,84.91a.66.66,0,0,1-.3-.07.67.67,0,0,1-.29-.9,28.11,28.11,0,0,1,25.22-15.53,29,29,0,0,1,5.1.46.66.66,0,0,1,.53.78.65.65,0,0,1-.77.53,27.2,27.2,0,0,0-4.86-.44,26.79,26.79,0,0,0-24,14.8A.67.67,0,0,1,110.26,84.91Z"/><circle class="cls-30" cx="135.54" cy="97.3" r="25.28"/><path class="cls-34" d="M133.06,116.1v-2.75a22.38,22.38,0,0,1-7.72-1.68,1.59,1.59,0,0,1-.88-1.88l.7-2.56a1.61,1.61,0,0,1,2.18-1,18.61,18.61,0,0,0,7.13,1.5c2.76,0,4.82-.93,4.82-2.85,0-1.73-1.59-2.76-5.43-3.79-5.48-1.5-9.41-3.89-9.41-8.71,0-4.35,3.18-7.68,8.71-8.57V81a1.6,1.6,0,0,1,1.6-1.6h1.61A1.61,1.61,0,0,1,138,81v2.47a20.47,20.47,0,0,1,6.11,1.1,1.59,1.59,0,0,1,1,1.93l-.64,2.37A1.6,1.6,0,0,1,142.34,90a16.81,16.81,0,0,0-6-1.08c-3.28,0-4.21,1.35-4.21,2.57,0,1.5,2,2.53,6.22,3.84,6.09,1.82,8.61,4.35,8.61,8.89,0,4.17-3.09,7.91-9.08,8.85v3.08a1.6,1.6,0,0,1-1.6,1.6h-1.62A1.6,1.6,0,0,1,133.06,116.1Z"/><circle class="cls-35" cx="156.2" cy="165.66" r="31.79" transform="translate(-46.53 269.32) rotate(-73.76)"/><circle class="cls-36" cx="156.2" cy="165.66" r="30.74" transform="translate(-70.34 142.86) rotate(-40.93)"/><path class="cls-14" d="M130.86,153.56a.6.6,0,0,1-.3-.07.66.66,0,0,1-.3-.89,29,29,0,0,1,31.18-15.5.65.65,0,0,1,.53.77.67.67,0,0,1-.77.54,27.75,27.75,0,0,0-29.75,14.79A.66.66,0,0,1,130.86,153.56Z"/><circle class="cls-30" cx="156.87" cy="166.33" r="26.01" transform="translate(-45.3 273.11) rotate(-74.52)"/><path class="cls-37" d="M154.32,185.67v-2.83a23,23,0,0,1-7.94-1.72,1.64,1.64,0,0,1-.91-1.93l.72-2.64a1.65,1.65,0,0,1,2.24-1.08,19.19,19.19,0,0,0,7.33,1.54c2.84,0,5-1,5-2.93,0-1.79-1.63-2.85-5.58-3.91-5.64-1.54-9.69-4-9.69-8.95,0-4.48,3.28-7.9,9-8.82v-2.83a1.65,1.65,0,0,1,1.65-1.65h1.67a1.64,1.64,0,0,1,1.64,1.65v2.54a21.26,21.26,0,0,1,6.3,1.13,1.64,1.64,0,0,1,1,2l-.66,2.44a1.64,1.64,0,0,1-2.17,1.11,17.12,17.12,0,0,0-6.17-1.12c-3.37,0-4.34,1.4-4.34,2.65,0,1.54,2,2.6,6.41,3.95,6.26,1.88,8.86,4.48,8.86,9.15,0,4.29-3.18,8.14-9.34,9.1v3.17a1.65,1.65,0,0,1-1.65,1.65H156A1.65,1.65,0,0,1,154.32,185.67Z"/><circle class="cls-38" cx="196.99" cy="122.35" r="23.29"/><circle class="cls-39" cx="196.99" cy="122.35" r="22.52" transform="translate(-1.94 241.52) rotate(-62.77)"/><path class="cls-14" d="M178.42,113.67a.64.64,0,0,1-.3-.08.66.66,0,0,1-.3-.89A21.37,21.37,0,0,1,197,100.9a21.76,21.76,0,0,1,3.87.35.67.67,0,0,1-.24,1.31A20.14,20.14,0,0,0,179,113.3.67.67,0,0,1,178.42,113.67Z"/><circle class="cls-30" cx="197.48" cy="122.85" r="19.06" transform="translate(-22.94 48.66) rotate(-13.28)"/><path class="cls-40" d="M195.61,137v-2.08a17.13,17.13,0,0,1-5.82-1.26,1.2,1.2,0,0,1-.66-1.42l.52-1.93a1.21,1.21,0,0,1,1.64-.79,14.11,14.11,0,0,0,5.38,1.13c2.08,0,3.63-.7,3.63-2.15s-1.2-2.08-4.09-2.86c-4.13-1.13-7.1-2.93-7.1-6.56,0-3.29,2.4-5.79,6.57-6.46v-2.08a1.21,1.21,0,0,1,1.21-1.2h1.21a1.21,1.21,0,0,1,1.21,1.2v1.87a15.6,15.6,0,0,1,4.61.82,1.21,1.21,0,0,1,.76,1.46l-.49,1.78a1.21,1.21,0,0,1-1.59.82,12.38,12.38,0,0,0-4.52-.83c-2.47,0-3.18,1-3.18,2,0,1.12,1.48,1.9,4.7,2.89,4.58,1.38,6.49,3.28,6.49,6.7,0,3.15-2.33,6-6.85,6.67V137a1.21,1.21,0,0,1-1.21,1.2h-1.21A1.21,1.21,0,0,1,195.61,137Z"/><path class="cls-41" d="M347.31,198.8c-.27.88,2.93,2.22,4.82-1.38.07-1.72,1.11-9.11.08-10.52-5.48-7.48-16.13-16.86-16.13-16.86a2.54,2.54,0,0,0-.31,3.52l5.16,5.37c-1.08,2-2.4,3.6-3,6a7.2,7.2,0,0,0,.72,5.33,62.48,62.48,0,0,0,3.31,5.41A7.12,7.12,0,0,0,347.31,198.8Z"/><path class="cls-42" d="M343.19,182.42l4.7,4,1.48,4-4.2,4.66s-1.41-7.88-2.45-9.59S342.21,182.92,343.19,182.42Z"/><path class="cls-43" d="M439.72,492.48s1.19,6.73,1.77,13.39a4.59,4.59,0,0,1-4.39,5c-8.87.37-27.84,1.09-34.65.79a1.5,1.5,0,0,1-1.31-2.05,3.35,3.35,0,0,1,1.71-1.8l31.33-14.4Z"/><path class="cls-44" d="M440.69,488.53l-.95,8.05s-5.49,2.55-9.24-.32l2.27-9Z"/><path class="cls-45" d="M440,337.23c.42,2.11,2.22,104.88-8.77,150.93a1.56,1.56,0,0,0,.92,1.82,27.08,27.08,0,0,0,8.95,1.82,2.71,2.71,0,0,0,2.67-1.93c3.14-10.69,18.18-64.23,20.15-115.37,2.19-57.15,0-1.95,0-1.95l-1.29-35.32Z"/><path class="cls-46" d="M475.77,496s1.89,3.4,3.72,12.42a2.81,2.81,0,0,1-2.46,3.36c-2.93.29-7.44.66-11,.63a2.79,2.79,0,0,1-2.77-3.11c.4-3.3,1.65-8.7,5.5-12.91Z"/><path class="cls-47" d="M477.43,485.64l-2.23,12.17s-2.21,1.64-6.57.45l1.06-13.09Z"/><path class="cls-48" d="M483.45,340.39c9,54.22-1.94,134-5.63,149.63a2.44,2.44,0,0,1-2,1.85,16.35,16.35,0,0,1-7-.28,2.24,2.24,0,0,1-1.6-2c-.49-12.63.4-90.14-8-120.78a7,7,0,0,0-2.68-3.84l-16.25-11.55-1.24-18.67Z"/><path class="cls-49" d="M426.2,237.65c26.93-.45,56.64,7.07,56.64,7.07,8,46.83,1.4,100.84,1.4,100.84-20.84,5.47-44.36-3.34-44.36-3.34-3.46-19.57-19.63-74.66-19.63-74.66a88.57,88.57,0,0,1-32.91-10.45c6.8-7.89,10-17.93,11.41-23.87A90.52,90.52,0,0,0,426.2,237.65Z"/><path class="cls-50" d="M346.67,198a5.15,5.15,0,0,1,6-1.69c4,16.74,24.74,30.31,46.09,36.94-1.4,5.94-4.61,16-11.41,23.87C351.91,237.2,346.67,198,346.67,198Z"/><path class="cls-51" d="M472.51,270.79l10.33-26.07S508,261.8,512.12,283.47a59.62,59.62,0,0,0-21.86,5.86C488.4,279.1,472.51,270.79,472.51,270.79Z"/><path class="cls-52" d="M453.48,215.79,462,240.56a.89.89,0,0,1-.4,1.08c-2.34,1.29-10.75,5-20.89-1.41a4.19,4.19,0,0,1-1.94-3L436,215.79Z"/><path class="cls-53" d="M434.84,192.84s-9.41,17.71-8.21,24.87,12.87,6.64,23.05.83l7.12-19.13Z"/><path class="cls-54" d="M449.23,209.15a.74.74,0,0,1-.32-1.07,18.84,18.84,0,0,0,2.62-5.56s1.69-1.08-4.3-2.52-14.94-3.66-16.82-8.76,3-17.49,10.66-7.52a.73.73,0,0,0,1.16,0c1.26-1.64,4.57-5,9.16-3,4.31,1.93,4.79,5.08,4.73,6.67a.72.72,0,0,0,.86.74c2.17-.41,7.39-.77,9.83,4.58,2,4.41.7,6.91-.49,8.13a.73.73,0,0,0,.31,1.21c1.43.43,3.28,1.65,3.09,5-.25,4.63-5.43,4.22-6.9,4a.76.76,0,0,0-.65.23c-1.26,1.4-6.95,7.34-13.11,8.05a.74.74,0,0,1-.78-1l2.67-7.75a.74.74,0,0,0-.4-.91Z"/><path class="cls-55" d="M448.16,210.25s6.7-4.6,7.19-.73-6,5.61-9.26,4.16Z"/><path class="cls-56" d="M490.26,289.33s8.79,39.66.83,61.95c9.76,4.53,8,3.67,8,3.67s19.31-56.42,13.07-71.48C499.83,282.17,493.74,285.47,490.26,289.33Z"/><path class="cls-57" d="M491.09,351.28s-5,6.51-4.63,9.1.5,3.65.5,3.65,2.53-1.73,2.37-3.93c-.35,7-2.7,15-.57,14.59s13.18-10.56,10.69-21.41C493.78,349.34,492.19,349.77,491.09,351.28Z"/></g></g></svg>